<?xml version="1.0" encoding="UTF-8"?>
<!DOCTYPE svg PUBLIC "-//W3C//DTD SVG 1.1//EN" "http://www.w3.org/Graphics/SVG/1.1/DTD/svg11.dtd">
<!-- Creator: CorelDRAW X8 -->
<svg xmlns="http://www.w3.org/2000/svg" xml:space="preserve" width="218px" height="69px" version="1.1" style="shape-rendering:geometricPrecision; text-rendering:geometricPrecision; image-rendering:optimizeQuality; fill-rule:evenodd; clip-rule:evenodd"
viewBox="0 0 218 69"
 xmlns:xlink="http://www.w3.org/1999/xlink">
 <defs>
  <style type="text/css">
   <![CDATA[
    .fil1 {fill:#FEFEFE}
    .fil0 {fill:#F89406}
   ]]>
  </style>
 </defs>
 <g id="Capa_x0020_1">
  <metadata id="CorelCorpID_0Corel-Layer"/>
  <g id="_816843480992">
   <polygon class="fil0" points="16,64 4,64 4,5 16,5 "/>
   <path class="fil1" d="M69 64l-11 0c0,0 0,0 0,0 -1,0 -1,0 -1,0 -1,0 -2,0 -3,0 -1,0 -2,-1 -3,-1 -4,-1 -7,-3 -10,-5 -2,-2 -4,-5 -6,-7 -2,-3 -3,-6 -4,-8 0,-3 -1,-6 -1,-8 0,-1 0,-2 0,-3 1,-2 1,-3 1,-4 0,-2 1,-3 2,-5 1,-2 2,-4 3,-5 1,-2 2,-4 4,-5 2,-2 3,-3 5,-4 3,-2 6,-3 8,-4 0,0 1,0 1,0 1,0 1,0 2,0 0,0 1,0 1,0 1,0 1,-1 1,-1l11 0 0 13 -10 0c0,0 -1,0 -1,0 -1,0 -1,0 -1,0 -1,0 -2,1 -4,1 -1,1 -2,1 -3,2 -1,1 -2,2 -3,3 -1,1 -2,2 -2,4 -1,0 -1,0 -1,1 0,0 0,0 0,1 -1,1 -1,2 -1,3 0,0 0,1 0,2 0,2 0,3 0,5 1,2 1,3 2,5 1,1 2,2 4,4 1,1 3,2 5,3 0,0 0,0 1,0 0,1 1,1 1,1 1,0 1,0 2,0 0,0 1,0 1,0l10 0 0 12z"/>
   <path class="fil1" d="M141 35c0,4 -1,8 -2,11 -2,4 -4,7 -7,10 -2,2 -6,5 -9,6 -4,2 -8,2 -12,2 -4,0 -8,0 -12,-2 -4,-1 -7,-4 -10,-6 -3,-3 -5,-6 -6,-10 -2,-3 -3,-7 -3,-11 0,-5 1,-8 3,-12 1,-4 3,-7 6,-10 3,-2 6,-5 10,-6 4,-2 8,-3 12,-3 4,0 8,1 12,3 3,1 7,4 9,6 3,3 5,6 7,10 1,4 2,8 2,12zm-12 0c0,-2 0,-4 -1,-5 0,-2 -1,-4 -2,-5 -1,-2 -2,-3 -4,-4 -1,-1 -3,-3 -5,-3 -1,-1 -1,-1 -2,-1 -1,0 -1,0 -2,0 0,0 -1,0 -1,0 -1,0 -1,0 -1,0 -2,0 -3,0 -4,0 -2,0 -3,1 -4,2 -2,0 -3,1 -4,2 -2,1 -3,3 -4,4 -1,2 -2,4 -2,6 0,0 0,1 0,2 0,0 0,1 0,2 0,2 0,4 1,6 1,3 2,4 4,6 2,2 4,3 6,4 2,1 4,1 7,1 2,0 4,0 7,-1 2,-1 4,-2 5,-4 2,-1 3,-3 4,-5 1,-3 2,-5 2,-7z"/>
   <polygon class="fil1" points="214,64 202,64 202,26 184,51 167,26 167,64 155,64 155,5 167,5 184,29 202,5 214,5 "/>
  </g>
 </g>
</svg>
